<svg xmlns="http://www.w3.org/2000/svg" width="20" height="20" viewBox="0 0 20 20"><defs><style>.a{fill:none;}.b{fill:#9d9f9e;}</style></defs><rect class="a" width="20" height="20"/><path class="b" d="M-2378.943,1103.008a.375.375,0,0,1-.043-.063l-1.341-2.182h-3.927a2.635,2.635,0,0,1-2.631-2.641v-6.268a2.637,2.637,0,0,1,2.631-2.642h11.4a2.64,2.64,0,0,1,2.634,2.642v6.268a2.638,2.638,0,0,1-2.634,2.641h-3.927l-1.34,2.182a.3.3,0,0,1-.046.066.454.454,0,0,1-.388.223A.452.452,0,0,1-2378.943,1103.008Zm5.02-4.613h.4a1.481,1.481,0,0,0,1.491-1.593v-2.883h-.992v.289a1.116,1.116,0,0,0-.857-.389,1.4,1.4,0,0,0-1.442,1.562s-.016,1.514,1.4,1.514a1.177,1.177,0,0,0,.9-.389v.238s.072.746-.65.746h-.247Zm-5.329-3a1.525,1.525,0,0,0,1.687,1.554s1.724,0,1.724-1.554a1.548,1.548,0,0,0-1.724-1.573S-2379.252,1093.82-2379.252,1095.393Zm-3.932,1.554a1.506,1.506,0,0,0,1.437-1.59s-.053-1.552-1.437-1.552a1.357,1.357,0,0,0-.869.4v-1.619h-1.019v4.25h1.03v-.333A.98.98,0,0,0-2383.184,1096.947Zm2.23-2.623v2.516h.984v-2.749s.043-1.6-1.448-1.6v.986h0C-2381.375,1093.478-2380.955,1093.5-2380.955,1094.324Zm6.664,1.069a.655.655,0,0,1,.656-.655.654.654,0,0,1,.655.655.654.654,0,0,1-.655.654A.655.655,0,0,1-2374.291,1095.393Zm-3.929,0a.654.654,0,0,1,.656-.655.655.655,0,0,1,.655.655.654.654,0,0,1-.655.654A.654.654,0,0,1-2378.22,1095.393Zm-5.845,0a.654.654,0,0,1,.655-.655.655.655,0,0,1,.655.655.654.654,0,0,1-.655.654A.654.654,0,0,1-2384.065,1095.393Z" transform="translate(2388.552 -1086.223)"/></svg>